<svg viewBox="0 0 512 512" xmlns="http://www.w3.org/2000/svg"><circle cx="256" cy="256" r="256"/><path d="M415.8 204.9c-.1-.4-.1-.8-.2-1.1-.1-.2-.1-.4-.2-.7-.1-.3-.2-.7-.4-1-.1-.2-.2-.4-.3-.7-.1-.3-.3-.6-.5-.9-.1-.2-.2-.4-.4-.6-.2-.3-.4-.6-.6-.8-.1-.2-.3-.4-.5-.6-.2-.3-.4-.5-.7-.7l-.5-.5c-.2-.2-.5-.4-.8-.7-.2-.2-.4-.3-.6-.5l-.2-.2-146.3-97.6c-4.6-3.1-10.6-3.1-15.3 0L102 195.8l-.2.2c-.2.1-.4.3-.6.5-.3.2-.5.4-.8.7l-.5.5-.7.7c-.2.2-.3.4-.5.6-.2.3-.4.6-.6.8-.1.2-.3.4-.4.6-.2.3-.3.6-.5.9-.1.2-.2.4-.3.7-.1.3-.2.7-.4 1-.1.2-.1.4-.2.7-.1.4-.2.8-.2 1.1 0 .2-.1.4-.1.6-.1.6-.1 1.2-.1 1.8v97.5c0 .6 0 1.2.1 1.8 0 .2.1.4.1.6.1.4.1.8.2 1.2.1.2.1.4.2.7.1.3.2.7.4 1 .1.2.2.4.3.7.1.3.3.6.5.9.1.2.3.4.4.6.2.3.4.6.6.8.1.2.3.4.5.6.2.3.4.5.7.7l.5.5c.2.2.5.4.8.7.2.2.4.3.6.5l.2.2 146.3 97.5c2.3 1.5 5 2.3 7.6 2.3 2.7 0 5.3-.8 7.6-2.3l146.3-97.5c.1-.1.2-.1.2-.2.2-.2.4-.3.6-.5.3-.2.5-.4.8-.7l.5-.5.7-.7c.2-.2.3-.4.5-.6.2-.3.4-.6.6-.8.1-.2.3-.4.4-.6.2-.3.3-.6.5-.9.1-.2.2-.4.3-.7.1-.3.2-.7.4-1 .1-.2.2-.4.2-.7.1-.4.2-.8.2-1.2 0-.2.1-.4.1-.6.1-.6.1-1.2.1-1.8v-97.5c0-.6 0-1.2-.1-1.8.1-.2 0-.3 0-.5zM256 288.5L207.4 256l48.6-32.5 48.6 32.5-48.6 32.5zm-13.7-88.9l-59.6 39.9-48.1-32.2 107.7-71.8v64.1zM157.9 256l-34.4 23v-46l34.4 23zm24.7 16.5l59.6 39.9v64.1l-107.7-71.8 48.1-32.2zm87.1 39.9l59.6-39.9 48.1 32.2-107.7 71.8v-64.1zm84.4-56.4l34.4-23v46l-34.4-23zm-24.7-16.5l-59.6-39.9v-64.1l107.7 71.8-48.1 32.2z" fill="#FFF"/></svg>