<svg version="1.1" id="Mapa" xmlns="http://www.w3.org/2000/svg" xmlns:xlink="http://www.w3.org/1999/xlink" x="0px" y="0px"
     viewBox="188 47 650 700" style="enable-background:new 94 47 800 700;" xml:space="preserve">
<style type="text/css">
    .st0{fill:#E0E0E0;stroke:#FFFFFF;stroke-width:1.0281;stroke-miterlimit:1;}
</style>
<polygon id="zona-0422" class="st0" points="501.3,188.2 498.4,188.3 496.3,186 492.4,184.1 491.9,182.5 493.1,178.2 490.8,173.9
    486.8,171.7 484.5,162.2 484.3,158.5 487.5,155.8 489.5,153.6 489.8,149 487.6,146.6 486,142.7 485.4,142.7 483.5,141.1
    481.1,140.6 477.1,143.7 474.9,143.7 473.8,141.9 470.5,141.6 468.8,142.8 468.6,142.9 465.3,145 463,144.3 460.5,139.5
    454.8,135.7 453.9,132.4 450.5,131.1 447.4,131.9 446.5,129.2 445.4,127.9 443.8,129 445.8,134.7 448.6,137.1 451,138 453,141.6
    455,142.9 457.4,142.6 459,144.1 457.9,147.1 455.8,146.7 453.5,148.2 453.5,155.2 451,156.9 450.5,159.6 451.1,162 449.4,169.6
    449.4,171.9 450.3,173.5 450.5,176.6 453.5,180.5 453.5,182.7 454.5,185.7 453.8,188.2 451.3,190.8 451.5,190.6 450,193.9
    450.5,196.9 452.6,197.8 454.5,196.5 456.3,196.8 458.1,198.4 459.8,198.7 460.6,200.3 465,199.1 466,197.4 467.5,197.1
    467.5,197.1 469.9,199 469.9,202.4 471.1,204.9 477.4,204.3 483.1,202.4 487.4,198.6 492.1,198.3 494.4,195.8 496.5,195.7
    499,196.6 500.8,195.2 500.8,192.4 503,190.2 "/>
<path id="zona-0420" class="st0" d="M523.2,208.6l1.3,5.5l1.7,1.8l2.7,1.3l5.2-0.6l8.1-4.6l2.1,0.2l4.9,5.6l1.6-0.3l1.3,0.9l0.3,1.6
    l1.7,1.4l3.1-2.8l3.8-1.9l1.9-7l-0.9-2.7l-0.6-4.8l-2.1-1.3l-2-2.4l-1.9-4.2l-2.4-2l-0.6-2l-1.7-2.6l-3.6-0.6l-2,1.3l-3.1-0.3
    l-1.3,2.6l-3,2.8l-4.8,2.4l-2.7,3.1l-1.4,4.3l-3.2,4.2L523.2,208.6L523.2,208.6L523.2,208.6z"/>
<path id="zona-0421" class="st0" d="M586.7,318.6l1,3l4,3.2l3,0.9l0.8,2.4l4.5,2l-0.3,2.6l-2.4,2.8l0.6,1.6l1.9,1.3l-0.3,1.4
    l0.3,0.1l0.1,0.1l3.9-1.3h6.6c0,0,3.6-0.3,7.6-2.4c1-0.5,3.1-1.2,5.5-1.9l-0.1-0.4l2.7-2.9v-3.2l-0.8-3.2l0.8-2.4l1.6-0.7l-0.8-1.7
    l-1.3,0.2l-2,1.4l-2-0.9l-2-0.2l-4.1-3.6v-3.1l-0.1-0.2l4.1-7.1l1.7-5.5l0,0l-0.5-0.4l-1.5-4.3l-1.3-1.8l0.4-3.3l-4-5.3l-3.5-2.4
    l-1.5-3.6l-4-3.1l-3.1,3.8l-2.2,1.8l-0.9,2.5l-9.4,9.5l-0.4,2l3.6,2.4l1.6,0.4l2.4,3.6l-0.2,2l-1.9,2.4H591l-3.4,0.7l1.5,2.7
    l-0.3,4.7L586.7,318.6z"/>
<polygon id="zona-0418" class="st0" points="487.3,419.7 484.4,421.2 479,421 475.5,418.6 472,417.1 469.5,414.3 467,414.8
    462,416.7 456.3,417.1 451.8,416.2 448.1,419 446.4,421.2 441.5,422.9 437.9,426.2 436.9,428.7 446.9,432.3 451.1,436.2
    454.5,445.9 470,464.3 471.4,462.6 476.4,462.1 480.3,460.5 485.8,456.6 492,450.5 495.5,447.9 500.1,446.3 505.1,441.6
    505.3,439.4 504.1,438.1 499.3,436 497.4,433 494.5,431.5 493,429.9 492.1,427 489.6,424.5 489.5,423 488.1,421.6 "/>
<polygon id="zona-0417" class="st0" points="678.2,305.6 675.5,300.9 675.2,298.2 672.8,291.1 674,277.3 674.3,276.9 669,276.6
    663.7,274 660.3,271.1 657.3,270.9 657.3,270.9 656.8,269.3 654.3,268.9 653.2,270.1 649,270.1 646,269.2 642.3,270 642,271.3
    639.2,272.7 638,274.6 633.5,274.7 627.2,273.8 623.2,270.1 615.2,270.1 610.5,271.6 608.5,275 605.5,276.8 609.3,280 610.8,283.6
    614.3,286 618.3,291.3 617.8,294.5 619.2,296.3 620.7,300.7 622.3,302.4 625.3,302.2 629.3,303.3 629.3,303.3 630.3,305.8
    643.5,316.4 651.2,316.4 652.8,318.3 656.8,319.8 658.3,322 662.8,318.4 665.2,318.4 667.2,316.7 669.7,317.1 671,318.4 673,318.4
    676.3,316.4 677,313.7 676.8,309.3 678,307.1 "/>
<polygon id="zona-0413" class="st0" points="501.5,314.5 498,327.8 495,332.5 495,335 496,338.4 494.6,345.9 492.6,352 492.4,355.6
    493.1,357.7 493.1,361.8 494.3,364 494.9,368.1 497.3,370.7 496.5,372.6 493.5,373.4 491.6,375.5 489.9,375.7 489.8,379.5
    487.6,381.1 487.3,383 488.4,386 490.5,389.2 491,396.7 493,399.7 493.8,398.5 494.6,395.7 494.9,391.6 495.8,389.7 498,389.2
    502,385.6 504,385.6 507,380.4 508.3,375 508,367.9 509,365.5 511,364.5 513.2,359.5 512.8,354.2 510.3,350.6 510.3,347.3
    512.7,343.2 513,340 515.3,335 513.3,332.5 511,332.1 509.1,329.2 507,321.9 507,318.9 504,317.6 "/>
<polygon id="zona-0408" class="st0" points="420,341.4 417.4,341.7 414.3,340.9 405,335.9 399.5,336 394.8,334.3 394,335.9
    387,341.1 383.9,341.7 381.6,339.6 379.3,340.1 377.5,339.3 375.5,340 372.5,342.5 373.8,346.4 378.5,351.4 378.4,355.8
    379.5,358.4 379.5,362 376.5,365.4 371.5,368.9 367.1,369.9 365,372.7 368,373.7 368.9,375.4 367.1,378.3 366.4,382 363.6,387.3
    359.6,392.2 359,395.1 361.1,396.9 362.6,400.8 367.6,402.7 370.3,402.7 371.5,403.9 371,405.4 371.8,407.7 369.5,412.7
    369.3,418.8 365.9,423.6 365.4,426.1 366.1,428.3 369.5,430.8 371,432.5 370.9,435.6 368.4,439.9 369,441.8 371,443.3 374.5,448
    378.8,451 382.1,454.7 392.5,458.9 394.4,453.4 398.3,448.8 400.4,444.7 400.9,440.2 399.1,438.1 398.5,429.4 395.6,420.7
    395.8,416 395,411.3 395.6,404 394.9,401.4 394.9,399.2 398,394.2 398,389 399.8,385.8 400.4,383.9 402.1,381.4 399.4,378.6
    399.1,375.9 397.1,373.9 396.4,368.8 397.5,366.5 410.9,351 417.8,347.7 420.6,345.6 421.5,342.8 "/>
<polygon id="zona-0405" class="st0" points="690.5,252.6 687.3,254.4 685.2,254.4 679.8,259.3 679,263.6 675,264.6 673.7,267.1
    672.8,291.1 675.2,298.2 675.5,300.9 678.2,305.6 678,307.1 676.8,309.3 677,313.6 676.3,316.3 678.8,316.4 687,319.2 691,319.4
    695.3,318.1 699.5,315.9 701.7,316.1 704.3,309.4 704,306.4 704.8,304.4 703.3,300.3 699,298.4 696,296.2 696.2,290.1 697.5,287.1
    694.3,285.2 692.3,282.7 693.3,279.7 692.8,277.4 694.2,274.7 692.2,268.2 693.3,266.1 693.8,263.6 696,259.4 694.2,258.5 "/>
<polygon id="zona-0404" class="st0" points="739.8,308.5 739.8,307 736.3,303.3 736.7,300.2 739.5,298.9 739.8,297.1 738.7,295.6
    735.8,294.8 734.8,292.6 735.3,290 732,290 728.7,292.5 725.3,293.1 721.3,292.2 718.3,289.4 715,288.2 711.3,284.9 706.7,282.7
    704,284.2 700,284.4 697.5,287.1 696.2,290.1 696,296.2 699,298.4 703.3,300.3 704.8,304.4 704,306.4 704.3,309.4 701.7,316.1
    699.5,315.9 695.3,318.1 691,319.4 687,319.2 678.8,316.4 676,316.4 673,318.4 671,318.4 669.7,317.3 667.2,316.7 665.2,318.4
    662.8,318.4 658.5,321.7 659,324.8 660.5,327.4 661.3,330.3 663.3,332.6 664.3,336.7 668.8,338.1 673.3,343.1 677,344.2
    685.5,349.6 689.5,355.3 688.8,358.5 689.8,360.4 689.8,363.3 691,363.9 692,365.4 693,368.3 693,371.4 694,372.9 695.8,372.6
    698.7,369.8 701,369.7 703.2,368.3 705.8,363.9 711.2,359.4 711.3,355.6 710.3,353.3 711.8,350.9 715.2,350.7 718.7,344.5
    722.8,339.5 722.8,335.6 720,333.1 719.3,331.1 720.3,328 723,327 726,328 729.7,325.8 732.8,325.7 735.3,323.3 734.8,319.7
    736.8,316.4 737,313.5 738.2,312.2 739.8,312.6 740.8,312 741,310.1 "/>
<polygon id="zona-0403" class="st0" points="351.3,192.9 351,191.3 349.5,189.4 345.1,188.3 344.4,187.6 344.1,185.6 346,182.4
    346.3,180.2 346,179.6 346,179.6 348.8,178.9 351,174.4 349.6,171.2 352,168.2 352.9,165.3 356.5,162.4 356.8,160 358.3,157.5
    358.5,155.1 357.5,153.4 357.8,149.1 363.4,145.2 366,146.9 368.5,145.5 371.4,146.1 374,144.5 373.6,141.6 375.4,140.8 377,141.5
    378.8,141 379.5,139.6 381.8,137.4 381.6,134.1 384,134 385,136.4 388.5,136.6 392.5,140.4 394.5,139.7 394.3,138.2 393,136.1
    396.5,133.7 398.6,134.1 399,138.3 401.5,139.7 403.3,138.6 404.9,135.8 408.5,134.6 411.5,135.5 415.4,132.9 415.6,131
    414.3,128.2 416.9,127.7 420.5,129.7 421.6,133.8 422.3,134.5 419.5,135.6 418.6,139.7 421.3,144.9 420.8,147.7 421.5,150.7
    420.6,151.6 419.3,151.3 418,152.1 416,151.8 414.9,150.5 412.3,152.1 412,154.5 416.8,159.4 417,162 416,163.8 415.6,165.7
    411.5,166.5 410.4,165 408,165.3 405,167.2 403.6,171.1 401,173 394.8,174.2 385.6,178 380.4,182 378.4,182.2 378,180.8
    376.1,180.8 370,185.2 367,188.7 362.9,188.7 357.5,192 "/>
<path id="zona-0398" class="st0" d="M660,200.8l-2,2.2l0.3,0.8l1.8,0.3l1.7,2.4l4.1,0.3l1.1,1.9l-0.8,1.3l-1.1-0.2l-0.6,1.3l0.5,1.3
    l-0.9,2.2l1.6,0.3l1.3-1.4l2.8,1.9l1.3-0.6l1.6,1.2l-0.6,2.7l2.5,2.2l-0.2,2.4l1.9,4.2l0.1,5.6l-2.4,0.6l-3.8-1.5l-4.3,1.3l-5.7,0.5
    l-4.3-0.6l-2.4,2l-3.7,2l-4.4-0.6v-1.7l-2-4.3l-0.3-6.7l10.3-8.2l0.2-2l-1.6-2.2l0.5-3.5l-0.5-2.3l1.3-3.5l-1.9-4.2L660,200.8
    L660,200.8L660,200.8z"/>
<polygon id="zona-0397" class="st0" points="679.8,196.5 683.8,200 683.8,203.5 684.5,205 685,207.6 687.5,208.6 689.2,207.6
    693.8,209.4 714.5,210.8 715.5,211.6 725.5,209.7 728.8,207 731,203 734,202.1 737,200 739.8,199.3 739.5,198.4 739.7,195.7
    737.7,191.8 734,191.4 732,192.6 729,196.6 726,196.3 722.3,198.9 715.7,199 713.5,197.5 712.5,193.8 709.3,191.8 707.3,189.3
    705.2,188.3 700,189.8 695.2,188.3 690.8,188.1 687.8,191.8 683,193.4 "/>
<polygon id="zona-0392" class="st0" points="632,244.9 634.5,245.3 636.5,244 639.2,244.7 642.5,242.9 645.7,242 644.5,238.6
    645.2,236.7 645.2,235 643,230.7 642.8,224 639.3,224 635,225.3 631,225.5 626.8,224.4 623.2,226.2 613,227.8 603,232 604.8,234.2
    607.8,235.3 611.3,238 621.5,239.9 625.2,239.9 628.5,241.5 "/>
<polygon id="zona-0390" class="st0" points="570.8,224.3 572.8,228.3 575.8,229.4 576,231.1 575.7,233.6 578.2,234.5 580.5,231.9
    585.7,233.3 590.8,232.9 593,231.1 601.7,232.5 613,227.8 623.2,226.2 626.8,224.4 628.3,219.7 627.7,214.4 625.8,212.5
    624.8,209.2 617.3,204.7 617.3,202.5 620.8,200.5 625.5,199.8 626.3,198 624.5,196.1 624.7,194.6 618.7,194.1 608.3,196.5
    605.3,198 602.8,201.4 599.8,202.5 595.5,203.2 591.8,207.1 580.3,213.7 574.8,221 "/>
<path id="zona-0389" class="st0" d="M414.3,128.2l-1.8,0.4l-2.2-2.3v-3.6l-1.8-3.6l-4.1-3.2v-7l-2.3-2.1l-10.6,0.1l-2.7-2l-0.7-5.4
    l-2-2.3l-3-0.3l-2,1.3l-6.3-1.8l-2.3,1.6l-2.9-0.7l-1.8-2.5l-2.6-0.5l-3.6,1.6l-7.3,0.2l-2.9,4.8l0.5,4.8l-1.6,3.9l-4.8,3.2
    l-3.6,0.4l-1.1,2.7l0,0l-2.3,1.9h-4.1l-2.7-3h-2.6l-4.3,3.6l-1.8-0.9l0.5-4.1l-2.6-5.7l-2-0.7l-1.8,0.7l-1.6,5.7l-2.3,0.5l-5.5-3.2
    l-6.6,0.7l-2.5,3.4l0.9,6.9l4.6,2.9l1.8,2.3l-1.1,2.9l-4.4,2.3l-0.9,2l0.9,5.3l8,7.3l2,3.8l1.1,5.1l2.8,4.1l-0.7,3.9l7.2,22.1h4.8
    l5.5-9.7l6.8,5.2l7.2-3.7l0.9,1.9l2.7-0.8l2.3-4.5l-1.3-3.2l2.4-2.9l0.8-2.9l3.5-2.9l0.3-2.5l1.5-2.4l0.2-2.4l-1-1.8l0.4-4l5.6-3.9
    h0.1l2.4,1.7l2.5-1.4l2.8,0.6l2.7-1.6l-0.3-2.9l1.7-0.8l1.7,0.6l1.7-0.5l0.6-1.4l2.4-2.2l-0.2-3.2l2.3-0.2l1.1,2.4l3.5,0.2l4,3.8
    l2-0.6l-0.3-1.6l-1.3-2l3.5-2.4l2.2,0.5l0.3,4.2l2.4,1.4l1.9-1.1l1.6-2.8l3.6-1.2l2.9,0.9l3.9-2.6l0.3-1.9L414.3,128.2L414.3,128.2
    L414.3,128.2z"/>
<polygon id="zona-0381" class="st0" points="512.5,674.6 508.1,670.6 505.5,664.5 509.1,655.3 511.1,643.1 508.3,622.7 508.1,622.6
    503.8,592.2 505.5,589.2 504,584.5 493.9,577 488.1,565.8 489.5,563.1 486.9,558 490.3,545.7 483.3,546.4 480.6,557.2 476.1,557.9
    474.6,563.1 471.5,563.1 460.9,556.3 458.6,556.5 455.1,566 444.6,569.1 440.5,566.2 431.9,549 427.4,547 423.9,537.1 416.5,527.9
    413,528.8 408.9,525.3 406.8,517.7 402.9,513.5 402.1,510 409,502.9 407.6,500.7 397.3,500.4 396,499 396.5,496.2 395.5,494.5
    395.5,492.3 394.5,490 394.6,483.6 393.9,480.6 393.9,477.4 392.6,474.7 390.5,471.7 381.1,475.4 370.8,473.7 368.8,474.8
    366.9,472.7 365.4,472.7 362.1,473.6 359,472.6 357.1,474.3 356.4,482.1 349.8,483.1 351.1,488.2 346,493.6 340,492.2 331.5,494.6
    329.8,498.3 332.9,503.4 331,505.1 331,509.2 333.9,511.6 334.4,514.6 327.4,518.3 323.4,523.4 323,529.2 326.8,533.3 338.3,536.6
    347.8,541.4 351.5,550.9 356,552.9 359,558.7 356.3,565.1 352.5,563.4 345.5,561.9 341.1,558.5 339.6,562.8 344.8,569.2
    346.8,583.3 345.5,599.1 345.5,599.1 342.6,613 335.5,615.7 327.8,614.6 323.6,611.9 321.4,607.9 317.5,609.2 318.3,615
    313.1,623.8 315.9,643.1 312.1,656 314.9,661.1 325.8,660.7 329.5,663.4 336.5,664.1 350.5,679.4 356.3,690.2 363,696.7
    364.4,702.8 362.6,708.9 357,714.6 356,719.7 352.1,725.2 351.9,732.9 356.5,734 357.1,728.5 359.1,725.2 365.5,723.1 388.5,728.9
    402.6,729.2 405.5,724.5 408.5,721.4 411.9,720.7 416.3,722.1 423.4,722.1 431.5,716.3 437.6,716.3 439.6,722.4 445.5,724.3
    455.3,721 456.5,724.4 461.6,727.5 464.4,734.6 469.5,736.7 476.5,735.7 478.6,729.5 482,727.5 490.9,724.5 491.9,720.1 488.5,716
    487.8,708.9 492.9,704.1 497.3,704.8 500.4,703.5 502.8,697 508.1,694.3 513.3,682.8 "/>
<polygon id="zona-0376" class="st0" points="437.5,136 426.6,137 424.1,136.1 422.3,134.5 419.5,135.6 418.6,139.7 421.3,144.9
    420.8,147.7 421.5,150.7 420.6,151.6 419.3,151.3 418,152.1 416,151.8 414.9,150.5 412.3,152.1 412,154.5 416.8,159.4 417,162
    416,163.8 415.6,165.7 411.5,166.5 411.1,169.9 409,171.9 408.5,174.1 410,176.3 411.3,175.3 413,174.9 413.8,176.3 416.5,176.6
    418.4,175.5 420.5,176.1 424,179.1 426.4,183.3 427,189.8 428.5,192.5 430.6,192.5 433.1,194.3 435.3,193.6 436.6,194.6
    437.1,197.1 438.8,198.4 439.9,197.4 440.5,194.1 445.5,192.5 447.6,191.3 451.5,190.6 451.3,190.8 453.9,188.2 454.5,185.7
    453.9,182.7 453.9,180.5 450.9,176.6 450.4,173.5 449.5,171.9 449.5,169.6 451.3,162 450.5,159.6 451.3,156.9 453.9,155.2
    453.9,148.2 456,146.7 457.9,147.1 459,144.1 457.4,142.6 455,142.9 453,141.6 451,138 448.6,137.1 445.8,134.7 443.8,129
    439.8,131.5 "/>
<polygon id="zona-0375" class="st0" points="689.5,355.3 685.5,349.6 677,344.2 673.3,343.1 668.8,338.1 664.3,336.7 663.3,332.6
    661.3,330.3 660.5,327.5 659,325 658.3,322.3 656.8,319.8 652.8,318.3 651.2,316.4 643.5,316.4 630.3,305.8 629.3,303.3
    625.3,302.2 622.3,302.4 621,301.2 619.3,306.5 617.3,309.4 615.3,313.8 615.3,316.9 619.5,320.5 621.5,320.6 623.5,321.6
    625.5,320.2 626.8,320 627.7,321.7 626,322.4 625.3,324.8 626.2,328 626.2,331.1 623.5,334 623.8,335.6 625.5,334.5 628.5,334.7
    632,333.1 633.7,334.8 633.3,336.9 635,341.7 636.3,350.1 636.2,350.1 638.8,351.2 642,354.7 644.3,363 648,366 653.8,365.8
    660.3,369.5 663,368.8 665.2,368.8 670.2,371.4 675.5,371.5 679.3,368.9 684.2,369.1 686.7,368.1 688.2,366.7 688,363.7
    689.8,363.3 689.8,360.4 688.8,358.5 "/>
<polygon id="zona-0374" class="st0" points="392.9,268.4 391.4,266.2 388.9,265.9 383.5,260.2 379.3,257.3 376.5,252.6 375,247.7
    375.8,245.7 374.3,243.5 371.9,244.3 368.5,244.1 365.1,241.7 363.1,241.4 361.6,243.4 362.5,245.7 361,248.5 361,251 361.9,252.5
    361.6,255.9 362.6,257.8 362.5,260.2 361.5,262.3 361.6,265 363.4,268.7 363.5,268.9 363.5,269.2 362.8,271.3 363.5,273
    362.5,276.3 359,280.5 358.4,282.5 356,283.4 353.5,283.5 350.5,286.1 350.1,289.5 348.9,290.7 344.9,290.8 343.1,291.9
    341.6,294.5 338.9,295.3 335.1,298.3 332.6,298.5 330.6,299.9 328.5,302.3 325.8,303 320.8,303 318.5,303.7 316.9,305.8 316.5,308
    317,310.2 316.8,312.3 315.1,314.4 315,316.5 315.8,317.7 315.5,319.4 314.8,321.1 315,323.2 317.1,326.9 317,331.4 319.9,332
    323.5,331.4 325.5,329.6 326.4,328.6 328.6,328.7 329.9,329.4 331.3,328.4 334.5,329.5 338,328.6 339,326.8 342.1,326.7
    344.9,324.7 348.3,324.6 350.4,323.3 354.8,323.6 357.6,322.9 361,319.8 363,319.1 363.4,317.1 365,315.6 367,315.4 368.4,314.1
    367.1,312.6 367.5,309.2 367.6,309.2 368.9,306.7 373,305 373.3,302.4 374,301.4 376.8,301.5 381.1,299.2 382.5,296.8 385.1,297
    386.4,295.1 384.1,292.4 384.6,289.2 382.4,288.4 380.6,284.9 380.8,282.4 378.8,280.2 379.8,281.2 383.4,279.7 387.1,276.6
    391.4,274.5 392.9,271.3 "/>
<path id="zona-0373" class="st0" d="M368,373.7l-3-1l-3.7,4l-5.9,4.4h-1.7l-1.8-2.4l-13.6-3.2l-2.3-2.9l-2.9-0.7l-3.7,1.7l0.3,1.2
    l-0.5,3.8L328,381v2.7l-1.6,2.1l0.3,2.5l-0.8,2.4l0.8,2.9l-0.1,3.4l-3.9,7.7l2.3-4.6c6-0.3,8.9,7.5,8.9,7.5l3.9,3.6l2.8,4.1l0.5-0.1
    l1.3-3.4l2.4-2.7v-4.4l1.3-1.3l1.5,1.3l3,0.8l1.2,2l2.2-0.2l1.3-3.4l3-4.2l1.5-7.7l4-4.9l2.7-5.4l0.8-3.7l1.7-2.9L368,373.7z"/>
<path id="zona-0372" class="st0" d="M382.1,454.7l-3.4-3.7l-4.4-3l-3.4-4.7l-2-1.5l-0.7-1.8l2.5-4.4l0.2-3l-1.5-1.7l-3.4-2.5
    l-0.8-2.2l0.5-2.5l3.4-4.9l0.3-6l2.2-5l-0.7-2.4l0.5-1.5l-1.3-1.3h-2.5l-5-1.9l-1.5-3.7l-2.2-1.8l-0.8,4.9l-3,4.2l-1.3,3.4l-2.2,0.2
    l-1.2-2l-3-0.8l-1.5-1.3l-1.3,1.3v4.4l-2.4,2.7l-1.3,3.4l-0.5,0.1l2.3,3.3c0,0-2.8,10.6-3.6,12.4s-9.3,6-9.3,6l-0.8,2.7l-0.1,9
    l0.5,3.4l2.1,5.8v2.7l-1.5,2l-0.1,2.5l-1.2,0.4l-0.2,7.5l2.6,0.7l1.1,2l0.4,1.9l2.5,2.4l3.3,2.1l9-2.1l2.3,2.7l6.5-1l0.8-7.7
    l1.8-1.7l3.2,1l3.2-0.8h1.5l1.8,2l2-1.2l10.4,1.7l9.2-3.7l2-2.2l0.1-10.8L382.1,454.7z"/>
<polygon id="zona-0371" class="st0" points="490.3,545.7 483.3,546.4 480.6,557.2 476.1,557.6 474.6,562.4 471.5,562.4 460.9,556
    458.6,556.3 455.1,565.9 444.6,569 440.5,566.2 431.9,548.9 427.4,547 423.9,537.1 416.5,527.9 413,528.8 408.9,525.3 406.8,517.7
    402.9,513.5 402.1,510 409,502.9 412.5,494.3 412.5,487.1 415,480.7 430.4,460.6 430.4,457.4 432.5,459.1 433.9,463.4 433.8,467.8
    435.3,469.5 438.8,467.6 441.8,466.6 444.5,463.3 447.1,461.3 449.5,460.6 451.5,457.2 455.4,454 457.9,450.7 470,464.3 469,466.5
    469.3,468.3 475.3,479 475.3,480.5 476,482.2 480.4,482.4 481.6,485.1 481,487.1 488.5,495.6 489.5,499.7 498,513.6 498.3,519.4
    499.4,522.8 497.6,527.8 494.5,530.5 "/>
<path id="zona-0353" class="st0" d="M735.3,282.7l-2.6-0.1l-3-0.8l-1.7-1.4l-5.5-8.6l0.7-0.6l0,0l1.5-1.1h3.3l1.7-1l-0.3-5l-3.4-4.5
    l-2.1-3.7l0.1-2.6l-1.4-3.1l1.5-1.2l1.5,1.4l1.8-0.7l3.4-4l2.5-0.7l1.3-3.5l-3-1.3l-2.1,0.9l-1.9-0.9l-2,0.8l-3.1,3.4l-5.1,3.3
    l-2.7,0.6l-4.3-1.4l-4.9-3.9l-2.9-0.3l-1.3-2.1l-1.1-1.3l-1.9,0.6l-4.5-2l-2.5,0.9l-1.9-1l0.9,2.6l-1.6,4.7l-1.6,0.5l3.1,7l3.8,6
    l1.8,1l-2.1,4.2l-0.6,2.5l-1.1,2l2,6.5l-1.4,2.7l0.5,2.3l-0.9,3l2,2.5l3.2,2l2.4-2.8l4-0.2l2.7-1.6l4.6,2.2l3.9,3.4l3.3,1.1l2.8,2.8
    l4.2,0.9l3.3-0.8l3.2-2.7h3.1l0.4-1.5l2.3-3.4L735.3,282.7L735.3,282.7z"/>
<polygon id="zona-0352" class="st0" points="715.5,211.6 713.3,214.3 713.3,216.9 714.5,220.5 716,222.5 716,226.1 718.5,229.2
    719.2,231.9 718.7,234.8 721.3,240 722.5,244.4 725.7,241 727.8,240.2 729.7,241.1 731.8,240.2 734.8,241.4 736,238.4 740,235
    742,234.8 744,233.8 745,231.5 747.5,230.3 751.8,230.4 752.7,224.8 751.8,221.1 748.5,216.7 748.5,215.3 741,202.9 739.8,199.3
    737,200 734,202.1 731,203 728.8,207 725.5,209.7 "/>
<polygon id="zona-0351" class="st0" points="450.8,369 446,375.6 443,377.3 444,389.3 448.5,395.2 452.9,397.3 453.6,399.3 452,400
    452.5,402.9 452,416.2 456.3,417.1 462,416.7 467,414.8 469.5,414.3 472,417.1 475.5,418.6 479,421 484.4,421.2 487.3,419.7
    487.1,418.9 488.5,415 488.5,412.7 492.1,406 491.5,403.7 491.6,401.5 490.5,400.4 488,401.1 485.5,400.4 482.4,398.2 479,398.2
    475.8,394.5 473.5,393.7 469.9,393.4 465.6,390 463.1,389.5 461,388.5 457,381.2 452.6,375.7 "/>
<path id="zona-0350" class="st0" d="M633.3,336.9l0.3-2l-1.7-1.7l-3.5,1.6l-3-0.2l-1.7,1.1l-0.3-1.3c-2.6,0.8-4.7,1.5-5.8,2
    c-4,2-7.6,2.4-7.6,2.4h-6.6l-3.7,1.2l2.8,3.1l3.2,0.6l6.1,7.4l3.3,0.4l2.6-1.9l3.2-0.9l5.5,1.3l5.2-1.1l4.5,1.3l-1.1-8.4
    L633.3,336.9z"/>
<polygon id="zona-0349" class="st0" points="561,201.7 559.3,200.8 557.2,198.4 555.3,194.3 553,192.2 552.3,190.2 550.7,187.6
    547,186.9 545,188.2 541.8,187.9 540.7,190.5 537.7,193.3 538.3,190 537.8,188.7 535.5,188 533.8,185.7 532,185.2 531.3,183.6
    529,183.3 526.3,180.8 528.5,179.3 532,178.7 539.5,171.9 539.5,170.2 538,169.3 538.3,166.8 543.2,162 545.8,161.3 547.8,157.4
    548.5,155.3 550,154.4 551.8,154.2 553.2,152.7 551.8,149 550.5,146.6 550.3,143.2 547.7,139.9 549,137.7 551.3,137.7 554.7,141.6
    554.5,142 554.5,145.2 557.3,148.2 558,150.2 555.5,157.1 557,160.3 556.8,162.6 553.8,165.5 552.2,175.1 561.7,191.6 562.3,195.2
    560.8,198.9 561.3,201.9 "/>
<polygon id="zona-0348" class="st0" points="565.3,298 565.5,295.3 567.8,293.3 568.8,290.4 567.3,287.1 564.8,286.7 557.2,283.8
    554,279.1 551.5,277.5 551.3,274.4 553.2,275.1 554.8,273.8 565.8,277.3 568.3,276.6 570.2,277.1 572.7,275.6 573.8,277.1
    576.7,277.1 581.2,282.5 583.2,282.2 584.8,283.1 588.7,283.5 590.3,285.3 588.3,288.9 588.8,290.7 591,290.7 591.8,292.2
    589.8,294.5 589.3,296.5 593,298.9 594.7,299.3 597,302.9 596.8,304.9 594.7,307.4 594.8,307.3 590.8,307.3 587.5,307.9 579.5,302
    571.2,300.9 "/>
<polygon id="zona-0347" class="st0" points="645.5,256.4 646.8,254.4 646.5,250 645.5,246 646.3,244.7 645.8,242 642.5,242.9
    639.2,244.7 636.5,244 634.5,245.3 632,244.9 631.2,246.9 633.2,248.4 633,250.2 630.5,251 627.8,253.7 625.8,253.7 621.5,250.9
    621.5,250.9 619,250 616.7,247.5 612.8,246.6 609.2,246.9 598.5,250.6 594.8,250.9 589.2,250 586,250.2 574.7,253.8 579.3,258.9
    589.2,262 592.5,263.6 595,266.6 597.8,268 599.8,271.5 605.5,276.7 608.5,274.9 610.5,271.6 615.2,270.1 623.2,270.1 627.2,273.8
    633.5,274.8 638,274.6 639.2,272.7 642,271.3 642.3,269.9 642,268.4 646.3,259.3 "/>
<polygon id="zona-0346" class="st0" points="430.6,308.9 429.5,304.5 427.1,300.8 421.6,294.8 421.6,294.8 418.8,283.9 414.8,282.6
    392.9,268.4 392.9,271.3 391.4,274.5 387.1,276.6 383.4,279.7 379.8,281.2 380.8,282.4 380.6,284.9 382.4,288.4 384.6,289.2
    384.1,292.4 386.4,295.1 385.1,297 382.5,296.8 381.1,299.2 376.8,301.5 374,301.3 373.3,302.3 373,304.9 368.9,306.5 367.5,308.9
    367.1,312.4 368.4,314.1 367,315.4 365,315.6 363.4,317.1 363.1,319.5 364.3,320.2 364.8,322 367.8,323.6 370,323.6 372.1,325.9
    370.9,328.1 368.9,333.8 371.3,337.2 372.5,342.1 375.5,340 377.5,339.3 379.3,340.1 381.6,339.6 383.9,341.6 387,341.1 394,335.9
    395,333.6 394.8,334.3 399.5,336 405,335.9 414.3,340.9 417.4,341.7 420,341.4 421.5,342.8 423.1,332.5 425.3,329.2 431.9,310.1 "/>
<polygon id="zona-0328" class="st0" points="365,372.7 367.1,369.9 371.8,368.9 376.8,365.4 380,362 380,358.4 378.6,355.8
    378.5,351.4 373.8,346.4 371.3,337.3 368.9,333.9 367.6,335.1 364,335.6 360.8,339.2 358.8,343.4 354.8,348 352.1,352.2
    346.6,354.6 345,356.8 344.3,360.3 342.5,361.6 339.5,361.4 338.4,362.2 338,363.5 336,364.1 335.4,365 335.3,366.6 332.3,368.8
    329.9,370.1 329.1,372 329.5,373.8 333,372.1 336,372.7 338.3,375.6 352,378.8 353.8,381.1 355.5,381.1 361.4,376.8 "/>
<polygon id="zona-0327" class="st0" points="434,225.3 437,217.9 439.3,214.2 439,210.4 438.1,206.8 440,203 444.5,200.4
    447.6,197.7 448.1,196.4 450.5,196.1 450,193.9 451.5,190.6 447.6,191.3 445.5,192.5 440.5,194.1 439.9,197.4 438.8,198.4
    437.1,197.1 436.6,194.6 435.3,193.6 433.1,194.3 430.6,192.5 428.5,192.5 427,189.8 426.4,183.3 424,179.1 420.5,176.1
    418.4,175.5 416.5,176.6 413.8,176.3 413,174.9 411.3,175.3 410,176.3 411.6,179.2 412,184.1 413.3,186.8 413.1,189.7 415.9,192.1
    416.3,196.1 413.3,201.3 413.1,205.5 415.5,211 417,213 417.1,216.8 418.4,219.9 417.9,224.8 417.9,224.8 424,224.9 429,226.2
    433.6,225.5 "/>
<polygon id="zona-0326" class="st0" points="624.7,194.6 624.5,196.1 626.3,198 625.5,199.8 620.8,200.5 617.3,202.5 617.3,204.7
    624.8,209.2 625.8,212.5 627.7,214.4 628.3,219.7 626.8,224.4 631,225.5 635,225.3 639.3,224 642.8,224 653,215.8 653.3,213.8
    651.7,211.6 652.2,208.1 651.7,205.8 652.8,202.4 651,198.2 640.3,195.4 634.5,196.1 "/>
<polygon id="zona-0325" class="st0" points="417.1,216.8 417,213 415.5,211 413.1,205.5 413.3,201.3 416.3,196.1 415.9,192.1
    413.1,189.7 413.3,186.8 412,184.1 411.6,179.2 408.5,174.1 409,171.9 411.1,169.9 411.5,166.5 410.4,165 408,165.3 405,167.2
    403.6,171.1 401,173 394.8,174.2 385.6,178 380.4,182 378.4,182.2 378,180.7 376.1,180.7 370,185.1 368,187.4 368,187.6 367,188.9
    362.9,188.9 357.5,192.1 351.3,192.9 351.6,197.9 352.8,199.7 352.9,201.8 355.6,206.5 355.8,209.6 357.4,211.3 360.3,211.4
    362,212.6 364.9,212 366.4,211.1 368.3,213.3 368.8,216.2 372,223.6 375.3,225.2 391.4,226.2 396.8,229.8 398,232.3 397.9,231.9
    400.5,230.7 403.9,225.9 417.9,224.6 418.4,219.8 "/>
<polygon id="zona-0320" class="st0" points="493,399.7 491,396.7 490.5,389.2 488.4,386 487.3,383 487.6,381.1 489.8,379.5
    489.9,375.7 491.6,375.5 493.5,373.4 496.5,372.6 497.3,370.7 494.9,368.1 494.3,364 493.1,361.8 493.1,357.7 492.4,355.6
    487.5,355.3 485.8,354.5 481.5,354.8 477.5,356.6 474.5,356.2 473,357.9 472.8,361.4 471.1,363.9 468.1,363.7 465.1,366.4
    463.1,366.2 461.6,363.6 458.3,363.7 456,366.2 452.9,367.6 450.8,369 452.6,375.7 457,381.2 461,388.5 463.1,389.5 465.6,390
    469.9,393.4 473.5,393.7 475.8,394.5 479,398.2 482.4,398.2 485.5,400.4 488,401.1 490.5,400.4 491.6,401.5 "/>
<polygon id="zona-0280" class="st0" points="454.5,445.9 451.1,436.2 446.9,432.3 436.9,428.7 434,427 431.6,424.4 430.5,419.6
    426.6,414.9 426.8,414.9 424.5,410.7 421.8,408.1 418.8,402.9 415.1,399.6 414.1,395.1 412.4,391.5 407.9,388.9 402.1,381.4
    400.4,383.9 399.9,385.8 398,389 398,394.2 394.9,399.2 394.9,401.4 395.6,404 394.9,411.3 395.8,416 395.6,420.7 398.5,429.4
    399.1,438.1 400.9,440.2 400.8,440.2 400.4,444.7 398.3,448.8 394.4,453.4 392.5,458.7 392.4,469.5 390.4,471.7 392.6,474.7
    393.9,477.4 393.9,480.6 394.6,483.6 394.5,490 395.6,492.3 395.5,494.5 396.5,496.2 396,499 397.3,500.4 407.6,500.7 409,502.9
    412.4,494.3 412.4,487.1 415,480.7 429.8,460.6 429.8,457.4 432.3,459.1 433.8,463.4 433.6,467.8 435.3,469.5 438.8,467.6
    441.8,466.6 444.5,463.3 447.1,461.3 449.5,460.6 451.5,457.2 455.4,454 457.9,450.7 "/>
<path id="zona-0260" class="st0" d="M540.8,330.7l0.4-3.1l-14-19.3l-5.1-10.8l-0.8-4.5l-1.9-2.7l-2.2-1.1l-1.7,0.3l-1.7,1.4
    l-1.6-0.5l-4.3,3.8l-1.7,3.5l-2.2,1.6l0.2,2.4l3.8,3.2l-0.5,1.4l-3,1.6l-2.8,6.5l2.5,3.2l2.8,1.3v3l2.3,7.3l1.9,2.9l2.2,0.3l1.9,2.6
    l-2.2,4.9l-0.5,3.2l-2.5,4.1v3.2l2.7,3.6l0.4,5.3l-2,5l-2,0.9l-0.9,2.4l0.2,7.1l-1.3,5.4l-3,5.2l1.4,2.8l6.1-3.5l2.6-0.1l4.9-3.9
    l3-0.1l4.1-3l3.8-1.3l5.8-4.6l1.2-2.2l0.8-3.6l-1.5-2.7l0.2-2.8l2.2-4.3l-0.5-4.6l1.8-8.7v-4.9h-0.1v-3.7L540.8,330.7L540.8,330.7z"
    />
<polygon id="zona-0259" class="st0" points="499.1,322.8 498,327.8 495,332.5 495,335 496,338.4 494.6,345.9 492.6,352 492.4,355.6
    487.5,355.3 485.8,354.5 481.5,354.8 477.5,356.6 474.5,356.2 471,354 468.6,351.2 467.8,347.1 463.5,344.2 462.1,341 469.3,331.7
    472.5,324.8 472.3,320.9 477.1,322.8 489.5,322.8 493.4,321.8 495.1,322.7 "/>
<polygon id="zona-0258" class="st0" points="471,354 468.6,351.2 467.8,347.1 463.5,344.2 462.1,341 462.1,341 469.3,331.7
    472.5,324.8 471.9,314.5 473.1,313.2 473.5,311.3 472,309.4 472,306.5 470.4,303.5 470.5,298.7 468.9,295 468.9,294.4 468.5,294.8
    464.5,297.9 461.5,301.4 453.5,305.6 449.5,316 449.8,321.7 441.5,342.7 438.6,344.9 436.6,349.5 440.5,354.2 441.1,356.5
    446.5,363.4 447.5,365.9 450.8,369 452.9,367.6 456,366.2 458.3,363.7 461.6,363.6 463.1,366.2 465.1,366.4 468.1,363.7
    471.1,363.9 472.8,361.4 473,357.9 474.5,356.2 "/>
<polygon id="zona-0257" class="st0" points="597.3,335.6 599.7,332.8 600,330.2 595.5,328.1 594.7,325.8 591.7,324.8 587.7,321.6
    586.7,318.6 588.7,315.3 589,310.6 587.5,307.9 587.8,308.1 579.5,302 571.2,300.9 565.3,298.1 564.5,299.5 564.5,302.7
    561.3,304.9 557.8,305.6 557.5,305.9 552.5,303 549,302.7 542.3,299.2 540.7,296.1 539.5,295.5 538.8,295.6 537.3,297.6 536,298.3
    536,300.9 532.2,304.9 528.8,304.3 525.8,305.1 525.3,305.1 541.2,327.6 541.5,324.3 546,325.5 552.2,329 556.5,332.9 561.5,335.5
    563.5,336 565.8,335.1 570.2,331.6 570.8,331.4 570.8,331.5 572.7,330.7 574.5,331.4 577.5,334 582.5,336.1 585.5,339 593,338.5
    599.5,339.9 599.8,338.4 598,337.2 "/>
<polygon id="zona-0256" class="st0" points="578.3,85.4 583.3,84 580.7,74.5 567.5,68.1 565.5,70.1 564.3,75.1 556.8,82.7
    549.7,85.9 544.3,85 540.2,82 538.8,83.6 540.2,86.1 539.8,89.7 536.3,91.1 530,90.4 521.5,94.3 521,96.6 523.3,98.2 524.2,100.7
    523.3,102.3 523.3,106.6 519.8,109.2 509.9,127.2 509.4,132.2 505.5,135.4 503.4,133.8 501.8,134.7 500,133.8 500.5,129.7
    498.5,127 495.4,127.2 493.8,130.8 495,134 494.5,136.1 487.6,142.5 486,142.7 487.6,146.6 489.8,149 489.5,153.6 487.5,155.8
    484.3,158.5 484.5,162.2 486.8,171.7 490.8,174.1 493.1,178.6 493.1,178.6 491.9,182.7 492.4,184.2 496.3,186 498.4,188.4
    501.3,188.2 503,190.2 500.8,192.4 500.8,194.3 503.5,195.5 507,195.8 508,197.6 507.3,200.2 510.3,203.2 511,205.4 509.9,207.5
    510.6,208.6 513.7,209.4 518.5,208.9 521.5,209.1 523.3,208.4 525.5,207.2 528.8,203 530.2,198.7 532.8,195.7 537.8,193.2
    538.3,190 537.8,188.7 535.5,188 533.8,185.7 532,185.2 531.3,183.6 529,183.3 526.3,180.7 526.3,180.7 528.5,179.2 532.2,178.6
    539.8,171.9 539.8,170.2 538,169.3 538.3,166.8 543.2,162 545.8,161.3 547.8,157.4 548.5,155.3 550,154.4 551.8,154.2 553.2,152.7
    551.8,149 550.5,146.6 550.3,143.2 547.7,139.8 549,137.5 551.3,137.5 554.7,141.9 557.3,138.1 557.3,134.9 554,130.6 555.5,127.2
    566.2,120.1 564.8,114.6 561.7,112.6 562.8,110.1 565,109.2 570.8,103.2 577,103 580,99.6 577,89.8 "/>
<polygon id="zona-0255" class="st0" points="478.4,217.1 476,211.7 472.4,209.5 471.1,204.9 469.9,202.4 469.9,199 467.8,197.6
    466.3,197.6 465,199.1 461,200.2 459.8,198.7 458.1,198.4 456.3,196.8 454.5,196.5 452.6,197.8 450.5,196.9 450.4,196.1
    448.1,196.4 447.6,197.7 444.5,200.4 440,203 438.1,206.8 439,210.4 439.3,214.2 437,217.9 434,225.3 433.6,225.5 446.1,232.1
    451.6,232.1 454.8,233.4 469,235.5 471.6,232.1 470.9,229.1 472.4,227.5 472.6,225.1 477,224.4 480,222.4 480.4,219.5 "/>
<polygon id="zona-0254" class="st0" points="566.3,231 567,226.9 565.3,226.9 562.8,224.1 562.5,222.3 560.8,219.8 560.8,216.7
    557,218.4 553.8,221.3 552.3,219.9 551.8,218.3 550.7,217.3 549,217.7 544.2,212.1 542,211.9 534,216.6 528.5,217.1 526,215.9
    524.3,214.1 523.3,208.4 521.5,209.1 518.5,208.9 513.7,209.4 511.4,208.8 509.3,213.3 507.3,215 506.6,219.3 507.6,223.3
    504.4,228 500.4,229.7 499.5,232 501.8,236.2 506.9,238 511.5,240.9 516,241.5 521.5,243.5 523.8,245.7 525.5,244.6 524,245.6
    524.2,246 526.3,248 529.5,248.8 535.3,247.6 538.3,245.5 544.2,245.5 548.7,244.1 552.8,243.8 558.5,241.1 563,241.3 565,242.6
    566.7,239.3 567.3,234.1 "/>
<polygon id="zona-0253" class="st0" points="599.8,271.5 597.8,268 595,266.6 592.5,263.6 589.2,262 579.3,258.9 574.7,253.8
    574.7,253.8 567.3,247.1 565,242.6 563,241.3 558.5,241.1 552.8,243.8 548.7,244.1 544.2,245.5 538.3,245.5 535.5,247.6 538,252.9
    540.2,263.6 542.8,269.9 547,273.1 549,272.2 551.5,274.4 553.2,275.1 554.8,273.8 565.8,277.3 568.3,276.6 570.2,277.1
    572.7,275.8 573.8,277.3 576.7,277.3 581.2,282.7 583.2,282.2 584.8,283.1 588.7,283.5 590.3,285.3 588.3,288.9 588.8,290.7
    591,290.7 592,292.3 599.2,285.1 600,282.5 602.3,280.7 605.3,276.9 "/>
<polygon id="zona-0252" class="st0" points="565,242.6 566.7,239.3 567.3,234.2 566.3,231.1 567,227.2 570.8,224.3 572.8,228.3
    575.8,229.4 576,231.1 575.7,233.6 578.2,234.5 580.5,231.9 585.7,233.3 590.8,232.9 593,231.1 601.7,232.5 603,232 604.8,234.2
    607.8,235.3 611.3,238 621.5,239.9 625.2,239.9 628.5,241.5 632,244.9 631.2,246.9 633.2,248.4 633,250.2 630.5,251.1 627.8,253.8
    625.8,253.8 621.5,250.9 619,250 616.7,247.5 612.8,246.6 609.2,246.9 598.5,250.6 594.8,250.9 589.2,250 586,250.2 574.7,253.8
    567.3,247.1 "/>
<polygon id="zona-0251" class="st0" points="450,298.7 449,294.9 446.3,292.4 445.4,290.2 446.3,288.8 446,287.3 444.9,285.9
    445.3,284.2 444,282.1 440.9,280.2 440.5,278.1 442,276.2 447,272.6 442.9,271.3 440.3,271.5 431.4,266.6 429,264.7 426.1,261
    418.4,261.1 417.5,259.5 414.8,257.7 410.6,255.9 405,256 398.1,258.7 395.3,261.7 392,262.9 388.9,265.9 391.4,266.2 392.9,268.4
    414.8,282.6 418.8,283.9 420,283.6 418.8,283.9 421.6,294.8 427.1,300.8 429.5,304.5 430.6,308.9 431.9,310.1 434.8,309
    438.4,304.9 442,302.8 444.8,302.5 448,300.5 450.6,300.1 "/>
<polygon id="zona-0250" class="st0" points="435.3,239.4 429.5,226.1 429,226.2 424,224.9 412,224.7 403.9,225.9 403.9,225.9
    400.5,230.7 398,231.7 397.9,232.2 397.8,232.3 397.8,232.3 396.8,229.8 391.4,226.2 375.3,225.2 372,223.6 368.8,216.2
    368.3,213.3 366.4,211.1 364.9,212.1 365,213.9 365.8,215.5 365.5,216.8 361.5,218.9 358.5,223.4 358.5,225.2 360.5,227.1
    361,229.6 364.8,233.2 365.3,234.6 366.5,235.7 368.5,235.8 371.4,239.3 373.9,239.9 375.4,241.8 374.3,243.5 375.8,245.7
    375,247.7 376.5,252.6 379.3,257.3 383.5,260.2 388.9,265.9 392,262.9 395.3,261.7 398.1,258.7 405,256 410.6,255.9 414.8,257.7
    417.5,259.5 418.4,261.1 426.1,261 426.8,259.5 426.8,255.5 429,251.5 431.3,251.3 434.4,247.3 435.3,245.1 436.8,243.5
    437.8,243.4 "/>
<polygon id="zona-0249" class="st0" points="501.8,236.2 495.6,238 493.5,236.9 491.3,237.7 488.1,237.1 482.9,236.9 478.9,235.7
    469.6,235.7 469,235.5 471.6,232 470.9,229.1 472.4,227.5 472.6,225.1 477,224.4 480,222.4 480.4,219.5 478.4,217.1 476,211.7
    472.4,209.5 471,204.9 477.3,204.3 483.1,202.4 487.4,198.6 492.1,198.3 494.4,195.8 496.5,195.7 499.1,196.6 500.8,195.2
    500.8,194.1 503.5,195.5 507,195.8 508,197.6 507.3,200.2 510.3,203.2 511,205.4 509.9,207.5 510.6,208.6 511.4,208.8 509.3,213.3
    507.3,215 506.6,219.3 507.6,223.3 504.4,228 500.4,229.7 499.5,232 "/>
<path id="zona-0248" class="st0" d="M657.3,270.9l2.9,0.2l3.5,2.9l5.3,2.5l5.3,0.4l-0.2-0.4l-0.3-9.4l1.3-2.5l4-1l0.9-4.3l5.3-4.9
    h2.2l3.1-1.9l-3.1-7.2l-1.4-1.4l-2-0.3l-1.4,1.4l-5.4-0.6l-0.9,1.4l-2.2-0.9l0.5-1.6l1.9-0.8l-0.2-9.4h0.1l-2.4,0.6l-3.8-1.5
    l-4.3,1.3l-5.7,0.5l-4.3-0.6l-2.4,2l-3.7,2l-4.4-0.6l-0.5,1.9l1.6,6.2l-0.7,1.3l1.1,4l0.2,4.3l-1.3,2l0.7,2.9l-4.2,9.1l0.2,1.5
    l3.8-0.8l2.9,0.8h4.2l1.1-1.2l2.5,0.5L657.3,270.9L657.3,270.9L657.3,270.9z"/>
<path id="zona-0247" class="st0" d="M721.3,240l-2.7-5.2l0.5-2.9l-0.3-2.7l-2.2-3.1v-3.5l-1.8-2l-1.3-3.6v-2.6l2.1-2.7l-1.2-0.8
    l-20.8-1.4l-4.6-1.7l-1.5,0.8l0,0l-0.3,0.1l-2.4-1l-0.5-2.6l-0.7-1.6V200l-4-3.5l-0.8,0.8l-7.1,3l-8.7,0.9l-3.3-0.4l-2,2.2l0.3,0.8
    l1.8,0.3l1.7,2.4l4.1,0.3l1.1,1.9L666,210l-1.1-0.2l-0.6,1.3l0.5,1.3l-0.9,2.2l1.6,0.3l1.3-1.4l2.8,1.9l1.3-0.6l1.6,1.2l-0.6,2.7
    l2.5,2.2l-0.2,2.4l1.9,4.2l0.1,5.6H676l0.2,9.4l-1.9,0.8l-0.5,1.6l2.2,0.9l0.9-1.4l5.4,0.6l1.4-1.4l2,0.3l1.3,1.4l1.6-0.3l1.6-4.6
    l-0.8-2.4l1.7,0.9l2.5-0.9l4.5,2l1.9-0.6l1.1,1.3l1.3,2.1l2.9,0.3l4.9,3.9l4.3,1.4l2.7-0.6l5.1-3.3L721.3,240L721.3,240z"/>
<polygon id="zona-0246" class="st0" points="453.6,399.3 452.9,397.3 448.5,395.2 444,389.3 443,377.1 443,377.1 446,375.6
    450.8,369 447.5,365.9 446.5,363.4 441.1,356.5 440.5,354.2 436.9,349.2 432.6,350.1 429,348.3 421.5,342.8 420.6,345.6
    417.8,347.7 410.9,351 397.5,366.5 396.4,368.8 397.1,373.9 399.1,375.9 399.5,378.6 405.1,384.7 407.9,388.9 412,391.4
    411.8,391.7 412.4,391.5 414.1,395.1 415.1,399.6 418.8,402.9 421.8,408.1 424.5,410.7 426.6,414.9 430.5,419.6 431.6,424.4
    434,427 436.9,428.7 437.9,426.2 441.5,422.9 446.4,421.2 448.1,419 451.8,416.2 452.5,402.9 452,400 "/>
<path id="zona-0020" class="st0" d="M324.8,400.2l-2.3,4.6v4.4l-2.4,5.2l1.8,9.5l-1.3,4.7l7.6,3.5l1.5,4.8c0,0,8.5-4.2,9.3-6
    c0.8-1.8,3.6-12.4,3.6-12.4l-5.1-7.4l-3.9-3.6C333.6,407.6,330.9,399.9,324.8,400.2z"/>
<polygon id="zona-0006" class="st0" points="516.5,285.3 515.5,281.8 513.5,279.8 511.5,275.8 508,275.3 504,275.6 500.4,273.6
    496.8,273.8 494.9,277.5 496.1,282 498.1,284.6 499.5,289.6 496.9,300.2 494.4,302 490,301.3 488.5,298.5 480,294.9 472.8,289.8
    469,294.4 469,295 470.6,298.7 470.4,303.5 472,306.5 472,309.4 473.5,311.3 473,313.2 471.8,314.5 472.1,320.7 477.1,322.6
    489.5,322.6 493.4,321.7 495.1,322.6 499.1,322.7 504.4,307.9 507.4,306.4 507.9,304.9 504,301.7 504,299.4 506.1,297.8
    507.9,294.2 512.2,290.5 513.8,290.9 515.5,289.5 517.2,289.2 519.3,290.3 "/>
<polygon id="zona-0005" class="st0" points="469.5,287.6 466.9,282.7 463.8,280.4 459.9,278.4 457,278.5 453.9,276.4 449.9,274.9
    447,272.7 442,276.2 440.5,278.1 440.9,280.2 444,282.1 445.3,284.2 444.9,285.9 446,287.3 446.3,288.8 445.4,290.2 446.3,292.4
    449,294.9 450,298.7 450,300.3 448,300.5 444.8,302.5 442,302.8 438.4,304.9 434.8,309 431.9,310.1 425.3,329.2 423.1,332.5
    421.6,343.1 429,348.3 432.6,350.1 436.6,349.5 438.6,344.9 441.5,342.7 449.8,321.7 449.5,316 453.6,305.1 453.6,305.1 461.5,301
    464.5,297.7 468.5,294.8 472.8,289.8 "/>
<path id="zona-0004" class="st0" d="M567.3,287.1l-2.5-0.4l-7.6-2.9l-3.3-4.7l-2.3-1.6l-0.1-3.1l-2.4-2.2l-2,1l-4.1-3.1H543
    l-2.7-6.4l-2.2-10.8l-2.3-5.4h-0.2l-5.8,1.2l-3.3-0.7l-2.2-2l-0.2-0.4l-2.5-2.1l-5.4-2l-1.3-0.1l1.8,5.2l-2,2.2l-2.9,1.5l-2,2.7
    l2.6,1.6l2.2,4.6l0.4,3.4l3.6,2.9l-6,2.7l-3.3,0.5l-0.5,2l5.1,9.1l2,2l0.9,3.5l4.7,7.7l0.8,4.6l3.3,7.5h0.5l3-0.8l3.3,0.7l3.7-4
    l0.2-2.7l1.3-0.6l1.5-2l0.8-0.1l1,0.6l1.6,3.1l6.7,3.5l3.6,0.3l5.1,2.8l0.2-0.2l3.5-0.6l3.1-2.3v-3.1l1-1.5l0.1-2.7l2.2-2l1.1-2.9
    L567.3,287.1L567.3,287.1z"/>
<polygon id="zona-0003" class="st0" points="512.3,268.2 518.3,265.5 514.7,262.6 514.3,259.1 512.2,254.6 509.6,253 511.5,250.2
    514.5,248.8 516.5,246.6 514.7,241.3 511.5,240.9 506.9,238 501.8,236.2 495.6,238 493.5,236.9 491.3,237.7 488.1,237.1
    482.9,237.2 478.9,236.2 469.6,236.2 469,235.7 469,238 472.1,242.8 472.9,245.5 474.1,246.8 474.9,248.4 479.9,250 481.5,253.3
    484.5,254.7 487.6,254.7 488.3,255.1 493,256.6 495.9,256 497.3,253.6 497.3,253.6 497.3,257.3 494.5,260.2 494.5,264.4
    496.6,269.1 496.6,273.8 500.3,273.6 504,275.6 508,275.3 511.5,276 508.5,270.7 509,268.7 "/>
<polygon id="zona-0002" class="st0" points="479.9,250 474.9,248.4 474.1,246.8 472.9,245.5 472.1,242.7 469,237.8 469,235.5
    454.8,233.4 451.6,232.1 446.1,232.1 433.6,225.5 429.5,226.1 435.3,239.4 437.8,243.4 436.8,243.5 435.3,245.1 434.4,247.3
    431.3,251.3 429,251.5 426.8,255.5 426.8,259.5 426.1,261 429,264.7 440.3,271.5 442.9,271.3 447,272.6 447.9,269.9 449.3,268
    453,265.8 456.3,262.9 459.4,258 463.5,260 467.1,262.7 470.3,262.2 473.5,262.5 474.5,260 481.5,253.5 "/>
<path id="zona-0001" class="st0" d="M499.5,289.6l-1.3-5.1l-2-2.6l-1.3-4.6l2-3.4l-0.3-4.9l-2-4.7v-4.2l2.7-2.9l-0.1-3.6l-1.4,2.4
    l-2.7,0.7l-5.4-2h-3.1l-3.1-1.4l-6.9,6.7l-1.3,2.4l-3.1-0.2l-3.1,0.6l-3.8-2.7l-3.9-2l-3,4.8l-3.3,2.9l-3.7,2.2l-1.4,1.9l-0.8,2.8
    l2.7,2.2l4.1,1.5l3.1,2.1l2.9-0.1l3.9,2l0,0l3.1,2.3l2.6,4.9l10.7,7.5l8.4,3.4l1.5,2.7l4.3,0.7l2.6-1.8L499.5,289.6L499.5,289.6z"/>
</svg>